<svg xmlns="http://www.w3.org/2000/svg" xmlns:xlink="http://www.w3.org/1999/xlink" width="50" zoomAndPan="magnify" viewBox="0 0 768 767.999994" height="50" preserveAspectRatio="xMidYMid meet" version="1.0"><defs><g/><clipPath id="fd7f506e06"><path d="M 435 372 L 475.425781 372 L 475.425781 485 L 435 485 Z M 435 372 " clip-rule="nonzero"/></clipPath></defs><rect x="-76.8" width="921.6" fill="#ffffff" y="-76.799999" height="921.599993" fill-opacity="1"/><rect x="-76.8" width="921.6" fill="#ffffff" y="-76.799999" height="921.599993" fill-opacity="1"/><rect x="-76.8" width="921.6" fill="#f1eaea" y="-76.799999" height="921.599993" fill-opacity="1"/><path fill="#fff9f5" d="M 467.863281 482.902344 C 467.863281 483.351562 467.816406 483.753906 467.773438 484.203125 C 467.328125 488.375 465.707031 492.414062 464.179688 496.359375 C 462.515625 500.441406 460.898438 504.570312 459.277344 508.652344 C 458.605469 510.359375 457.886719 512.152344 456.582031 513.453125 C 454.46875 515.515625 451.144531 516.140625 449.394531 518.476562 C 448.265625 520 448 522.023438 446.785156 523.457031 C 445.566406 524.890625 442.648438 525.113281 442.242188 523.277344 C 441.300781 534.316406 427.363281 533.6875 420.355469 538.039062 C 418.289062 539.339844 417.03125 541.269531 415.859375 543.332031 C 414.511719 545.75 413.074219 547.996094 411.09375 549.96875 C 410.691406 550.421875 410.238281 550.820312 409.699219 551.089844 C 408.9375 551.492188 408.082031 551.628906 407.1875 551.628906 C 406.328125 551.671875 405.476562 551.628906 404.667969 551.3125 C 404.039062 551.136719 403.457031 550.777344 402.828125 550.640625 C 401.429688 550.324219 400.308594 551 399.050781 551.359375 C 397.835938 551.628906 396.710938 552.121094 395.542969 552.523438 C 394.777344 552.792969 393.972656 553.105469 393.113281 553.152344 C 390.910156 553.375 388.890625 552.164062 386.777344 551.445312 C 385.652344 551.042969 384.214844 550.863281 383.402344 551.761719 C 383.085938 552.074219 382.910156 552.523438 382.457031 552.65625 C 382.234375 552.703125 382.011719 552.65625 381.785156 552.609375 C 380.707031 552.382812 379.535156 552.027344 378.820312 551.171875 C 377.605469 549.832031 377.789062 547.765625 378.058594 545.972656 L 345.015625 543.007812 C 345.46875 545.070312 344.433594 547.3125 342.636719 548.394531 C 340.839844 549.421875 338.367188 549.199219 336.789062 547.808594 C 336.429688 547.496094 336.074219 547.136719 335.621094 547.003906 C 334.679688 546.777344 333.871094 547.71875 333.242188 548.4375 C 331.125 550.90625 327.441406 552.25 324.519531 550.859375 C 323.574219 550.367188 322.722656 549.648438 321.777344 549.203125 C 320.160156 548.484375 318.363281 548.660156 316.609375 548.753906 C 314.136719 548.929688 311.574219 548.976562 309.371094 547.855469 C 305.773438 546.105469 303.570312 539.0625 299.433594 538.972656 C 297.460938 538.925781 295.660156 539.914062 293.726562 540.273438 C 289.050781 541.171875 284.554688 538.433594 280.328125 536.238281 C 280.058594 536.101562 279.792969 535.96875 279.476562 535.832031 C 276.886719 518.34375 267.914062 500.613281 261.871094 483.953125 C 258.066406 473.457031 254.246094 462.910156 252.097656 451.957031 C 249.925781 440.863281 249.503906 429.511719 249.085938 418.21875 C 248.726562 408.476562 248.367188 398.707031 249.15625 388.988281 C 249.523438 384.484375 250.164062 379.90625 252.167969 375.855469 C 256.382812 367.328125 265.730469 362.707031 274.710938 359.53125 C 283.691406 356.355469 293.3125 353.8125 300.332031 347.386719 C 313.808594 335.039062 315.609375 320.597656 315.363281 303.207031 C 315.230469 293.882812 315.0625 284.394531 317.683594 275.445312 C 320.308594 266.5 326.21875 258.007812 334.941406 254.675781 C 341.304688 252.242188 348.515625 252.796875 354.984375 254.929688 C 361.457031 257.0625 367.324219 260.679688 373.042969 264.382812 C 385.054688 272.171875 395.3125 281.160156 406.238281 290.261719 C 410.804688 294.070312 415.535156 293.046875 421.410156 293.769531 C 428.980469 294.699219 436.476562 296.257812 443.765625 298.5 C 449.144531 300.148438 454.425781 302.160156 459.464844 304.664062 C 461.875 305.859375 470.328125 309.222656 471.230469 311.925781 C 471.277344 312.0625 471.367188 312.148438 471.414062 312.285156 C 472.265625 313.945312 473.121094 315.652344 473.929688 317.3125 C 469.660156 316.953125 468.488281 322.964844 468.898438 327.183594 C 469.703125 335.660156 470.515625 344.09375 471.367188 352.527344 C 471.546875 354.589844 471.726562 356.65625 471.949219 358.71875 C 472.308594 362.710938 472.457031 361.160156 472.859375 365.15625 C 472.757812 367.582031 470.730469 365.5625 470.015625 368.363281 C 469.746094 369.667969 469.472656 370.96875 469.207031 372.269531 C 443.769531 422.628906 468 480.390625 467.863281 482.902344 Z M 467.863281 482.902344 " fill-opacity="1" fill-rule="nonzero"/><path fill="#bbb3b0" d="M 451.695312 312.304688 C 453.890625 312.53125 456.394531 312.003906 457.609375 310.148438 C 461.25 311.132812 465 311.738281 468.753906 311.925781 C 469.207031 311.964844 469.664062 311.964844 470.15625 312.003906 C 470.535156 312.003906 470.875 312.003906 471.253906 311.925781 C 467.917969 305.457031 464.355469 299.101562 460.640625 292.894531 C 460.980469 293.007812 461.398438 293.085938 461.738281 293.125 C 463.027344 293.085938 465.378906 293.046875 466.78125 292.859375 C 466.820312 292.859375 466.820312 292.859375 466.890625 292.859375 C 467.460938 292.78125 467.878906 292.632812 467.878906 292.519531 C 465.71875 285.972656 459.996094 281.28125 455.671875 275.871094 C 452.414062 271.671875 449.792969 266.070312 450.820312 260.660156 C 451.808594 255.667969 455.9375 253.207031 458.324219 248.96875 C 459.421875 247.152344 460.21875 244.808594 459.234375 242.917969 C 458.054688 240.683594 455.101562 240.269531 452.675781 239.511719 C 447.597656 237.808594 443.996094 233.496094 439.753906 230.28125 C 435.128906 226.800781 429.554688 224.492188 423.832031 223.808594 C 417.195312 223.015625 409.84375 226.082031 403.511719 224.492188 C 397.21875 222.941406 393.203125 212.574219 386.683594 213.558594 C 384.710938 213.820312 383.121094 215.296875 381.296875 216.09375 C 378.6875 217.226562 375.761719 217.039062 372.921875 216.847656 C 367.6875 216.507812 362.417969 216.207031 357.152344 215.828125 C 355.671875 215.75 354.042969 215.636719 352.714844 216.355469 C 351.386719 217.152344 350.59375 219.003906 351.539062 220.179688 C 342.820312 219.835938 334.101562 219.460938 325.421875 219.117188 C 323.753906 219.003906 322.046875 218.96875 320.644531 219.875 C 319.316406 220.707031 318.636719 222.863281 319.847656 224 C 315.71875 223.847656 311.585938 224.71875 307.832031 226.421875 C 308.023438 227.441406 308.25 228.5 308.4375 229.484375 C 301.804688 229.21875 298.128906 237.429688 291.949219 239.511719 C 288.953125 240.570312 285.769531 240.117188 282.621094 240.34375 C 279.515625 240.609375 276.101562 242.007812 275.15625 244.960938 C 274.625 246.664062 275.042969 248.59375 274.359375 250.257812 C 273.070312 253.511719 268.710938 253.925781 265.828125 255.894531 C 262.722656 257.898438 261.320312 261.71875 260.484375 265.316406 C 259.765625 268.417969 260.332031 273.75 258.664062 276.398438 C 257.109375 278.898438 253.054688 280.03125 250.667969 281.660156 C 241.871094 287.484375 235.804688 297.324219 234.59375 307.804688 C 234.441406 308.785156 234.402344 309.808594 234.898438 310.679688 C 235.921875 312.644531 238.761719 312.417969 240.960938 312.417969 C 253.167969 312.570312 256.316406 325.207031 255.707031 335.269531 C 255.554688 336.933594 255.40625 338.523438 255.175781 340.1875 C 254.988281 341.4375 254.796875 342.722656 254.609375 343.972656 C 254.230469 346.960938 253.8125 349.988281 253.054688 352.941406 C 251.917969 357.402344 250.023438 361.71875 249.71875 366.332031 C 249.527344 368.226562 249.679688 370.191406 249.113281 372.007812 C 247.824219 376.054688 243.3125 380.257812 245.964844 383.585938 C 246.457031 384.152344 247.179688 384.605469 247.671875 385.175781 C 247.898438 385.402344 248.050781 385.667969 248.203125 386.007812 C 248.582031 386.953125 248.238281 388.050781 247.898438 388.996094 C 244.601562 397.355469 237.929688 405.1875 239.371094 414.003906 C 239.597656 415.480469 240.089844 416.917969 240.050781 418.394531 C 240.050781 420.359375 239.21875 422.140625 238.382812 423.917969 C 236.601562 427.738281 234.78125 431.523438 233.039062 435.34375 C 231.789062 437.992188 231.636719 442.492188 234.515625 442.417969 C 235.84375 458.460938 236.601562 474.464844 236.792969 490.542969 C 237.398438 489.257812 239.445312 489.371094 240.429688 490.355469 C 241.417969 491.339844 241.683594 492.8125 241.949219 494.214844 C 243.085938 500.457031 244.449219 506.660156 246.230469 512.789062 C 246.6875 514.339844 247.214844 516.042969 248.542969 517.101562 C 249.226562 517.59375 250.097656 517.898438 250.742188 518.425781 C 252.980469 520.242188 252.410156 523.761719 254.039062 526.109375 C 255.671875 528.378906 258.855469 528.792969 261.546875 529.511719 C 264.273438 530.230469 267.308594 532.3125 266.851562 535.074219 C 270.492188 532.503906 275.421875 533.828125 279.476562 535.832031 C 279.855469 535.640625 280.195312 535.492188 280.5 535.265625 C 281.070312 534.886719 281.5625 534.507812 281.828125 533.902344 C 282.167969 533.183594 282.054688 532.386719 281.902344 531.632812 C 280.917969 525.464844 279.894531 519.335938 278.871094 513.128906 C 278.074219 508.476562 277.316406 503.710938 278 499.054688 C 279.628906 487.59375 289.332031 479.042969 293.238281 468.144531 C 295.132812 462.925781 295.019531 456 290.316406 453.050781 C 288.5 451.992188 286.300781 451.648438 284.632812 450.4375 C 281.484375 448.167969 280.953125 443.703125 278.261719 441.019531 C 275.914062 438.671875 272.234375 437.839844 270.304688 435.230469 C 268.710938 433.074219 268.40625 429.820312 266.132812 428.382812 C 264.84375 427.550781 263.175781 427.550781 261.773438 426.90625 C 258.324219 425.46875 257.148438 421.269531 256.542969 417.597656 C 255.292969 409.957031 254.722656 402.046875 256.011719 394.445312 C 256.542969 391.152344 257.414062 387.9375 258.816406 384.871094 C 259.953125 382.222656 263.25 379.273438 263.933594 376.660156 C 264.160156 375.828125 264.160156 375.109375 264.046875 374.503906 C 265.714844 373.558594 267.382812 372.652344 268.976562 371.707031 C 269.960938 371.0625 271.023438 370.417969 272.234375 370.269531 C 273.144531 370.152344 274.09375 370.304688 275.042969 370.304688 C 279.023438 370.191406 281.941406 366.75 285.199219 364.402344 C 285.957031 363.910156 286.753906 363.417969 287.664062 363.382812 C 288.460938 363.34375 289.292969 363.609375 290.054688 363.761719 C 296.609375 364.855469 301.160156 354.90625 307.679688 356.042969 C 308.929688 356.269531 310.21875 356.875 311.394531 356.382812 C 312.078125 356.078125 312.53125 355.472656 312.910156 354.867188 C 315.335938 351.351562 316.96875 347.339844 319.433594 343.785156 C 321.859375 340.265625 325.460938 337.199219 329.78125 336.933594 C 329.515625 338.976562 330.3125 342.082031 332.359375 341.550781 C 332.890625 341.398438 333.269531 341.058594 333.683594 340.679688 C 338.574219 336.101562 343.503906 331.523438 348.433594 326.945312 C 355.578125 320.394531 349.339844 312.230469 345.808594 305.324219 C 345.332031 304.386719 344.636719 303.175781 344.960938 302.160156 C 345.210938 302.214844 346.1875 302.359375 346.308594 302.582031 C 342.707031 295.886719 340.472656 288.394531 339.75 280.75 C 341.644531 279.238281 341.496094 276.398438 341.683594 274.015625 C 341.835938 271.59375 343.3125 268.683594 345.703125 269.058594 C 346.574219 269.171875 347.292969 269.703125 347.9375 270.347656 C 349.71875 272.125 350.894531 274.507812 351.273438 277.042969 C 351.503906 278.671875 351.386719 280.523438 352.335938 281.925781 C 352.828125 282.679688 353.585938 283.210938 354.195312 283.890625 C 356.011719 286.046875 356.582031 289.226562 358.25 291.609375 C 360.175781 294.367188 361.441406 297.351562 362.632812 300.449219 C 363.722656 303.285156 364.269531 306.941406 366.050781 309.433594 C 367.980469 312.128906 370.082031 315.175781 372.878906 317.035156 C 377.542969 320.136719 383.570312 320.210938 389.140625 319.570312 C 394.714844 318.886719 400.285156 317.527344 405.859375 318.167969 C 406.277344 318.207031 406.804688 318.246094 407.148438 317.980469 C 407.378906 317.753906 407.449219 317.449219 407.566406 317.1875 C 408.433594 315.105469 411.089844 314.539062 413.289062 314.652344 C 415.488281 314.800781 417.722656 315.371094 419.847656 314.613281 C 421.207031 314.121094 422.308594 313.136719 423.714844 312.722656 C 427.125 311.699219 430.460938 314.800781 434.0625 314.992188 C 437.929688 315.21875 441.1875 312.117188 445.019531 311.660156 C 447.21875 311.433594 449.417969 312.117188 451.695312 312.304688 Z M 451.695312 312.304688 " fill-opacity="1" fill-rule="nonzero"/><path fill="#bbb3b0" d="M 374.796875 342.542969 C 376.550781 342.785156 378.421875 343.113281 380.199219 342.953125 C 381.820312 342.808594 383.199219 342.078125 384.109375 340.714844 C 385.097656 339.253906 385.261719 337.425781 385.105469 335.722656 C 384.996094 334.523438 383.097656 334.507812 383.207031 335.722656 C 383.335938 337.101562 383.300781 338.578125 382.476562 339.757812 C 381.652344 340.941406 380.324219 341.140625 378.96875 341.082031 C 376.0625 340.957031 373.160156 340.4375 370.328125 339.785156 C 369.929688 336.601562 369.085938 333.515625 367.765625 330.578125 C 367.554688 330.113281 366.878906 330.003906 366.46875 330.238281 C 365.988281 330.519531 365.917969 331.066406 366.128906 331.53125 C 367.402344 334.363281 368.183594 337.410156 368.503906 340.492188 C 366.78125 343.304688 364.964844 346.253906 362.054688 347.980469 C 359.523438 349.476562 356.09375 349.734375 353.917969 347.464844 C 353.070312 346.582031 351.734375 347.921875 352.574219 348.804688 C 355.132812 351.476562 359.183594 351.558594 362.34375 349.980469 C 365.8125 348.246094 367.996094 344.921875 369.972656 341.71875 C 370.019531 341.691406 370.074219 341.691406 370.113281 341.65625 C 371.664062 342 373.21875 342.328125 374.796875 342.542969 Z M 374.796875 342.542969 " fill-opacity="1" fill-rule="nonzero"/><path fill="#bbb3b0" d="M 423.890625 516.9375 C 421.929688 525.210938 419.210938 533.292969 415.664062 541.03125 C 414.246094 544.128906 412.640625 548.636719 409.441406 550.375 C 406.21875 552.128906 403.230469 548.832031 399.886719 549.386719 C 397.15625 549.839844 395.34375 552.300781 392.71875 552.921875 C 389.644531 553.648438 387.945312 549.609375 384.863281 550.222656 C 383.320312 550.535156 381.886719 553.3125 380.171875 551.160156 C 379.164062 549.898438 379.683594 546.15625 379.667969 544.648438 C 379.613281 540.203125 379.566406 535.753906 379.511719 531.304688 C 379.496094 530.089844 377.601562 530.085938 377.617188 531.304688 C 377.664062 535.308594 377.707031 539.3125 377.753906 543.3125 C 377.789062 546.082031 377.054688 550.207031 378.863281 552.605469 C 380.171875 554.335938 382.003906 554.320312 383.667969 553.246094 C 384.523438 552.695312 385.199219 552.007812 386.292969 552.296875 C 386.984375 552.480469 387.65625 553.125 388.226562 553.515625 C 389.203125 554.175781 390.207031 554.789062 391.410156 554.910156 C 393.707031 555.140625 395.621094 553.59375 397.46875 552.472656 C 399.042969 551.515625 400.390625 550.964844 402.246094 551.429688 C 403.773438 551.816406 405.132812 552.640625 406.722656 552.804688 C 412.675781 553.40625 415.535156 545.875 417.480469 541.597656 C 421.011719 533.828125 423.75 525.742188 425.722656 517.441406 C 426 516.257812 424.171875 515.753906 423.890625 516.9375 Z M 423.890625 516.9375 " fill-opacity="1" fill-rule="nonzero"/><path fill="#bbb3b0" d="M 341.003906 533.683594 C 338.917969 530.347656 336.402344 527.316406 333.574219 524.578125 C 332.699219 523.730469 331.359375 525.066406 332.234375 525.917969 C 336.140625 529.699219 339.386719 534.066406 341.761719 538.960938 C 342.863281 541.234375 345.003906 545.371094 342.660156 547.574219 C 340.117188 549.960938 336.269531 547.535156 333.980469 546.070312 C 333.445312 545.730469 332.761719 546.074219 332.585938 546.632812 C 331.988281 548.574219 330.355469 549.953125 328.359375 550.339844 C 325.90625 550.816406 324.570312 549.207031 322.554688 548.242188 C 321.023438 547.511719 319.523438 547.757812 317.9375 548.132812 C 315.269531 548.765625 312.976562 548.816406 310.460938 547.558594 C 302.09375 543.382812 300.773438 532.8125 295.992188 525.6875 C 295.320312 524.683594 293.675781 525.628906 294.355469 526.644531 C 299.683594 534.578125 301.441406 547.804688 312.425781 550.277344 C 314.714844 550.792969 316.601562 550.292969 318.839844 549.859375 C 321.4375 549.359375 322.207031 550.480469 324.230469 551.550781 C 324.894531 551.898438 325.59375 552.128906 326.332031 552.246094 C 329.472656 552.730469 332.542969 551.015625 333.941406 548.277344 C 336.375 549.761719 339.121094 551.035156 341.984375 550.089844 C 344.832031 549.148438 345.867188 546.433594 345.445312 543.640625 C 344.910156 540.132812 342.851562 536.632812 341.003906 533.683594 Z M 341.003906 533.683594 " fill-opacity="1" fill-rule="nonzero"/><g clip-path="url(#fd7f506e06)"><path fill="#bbb3b0" d="M 465.484375 433.953125 C 463.101562 425.65625 461.664062 416.90625 462.609375 408.335938 C 462.832031 406.316406 463.191406 404.339844 463.550781 402.371094 C 464 399.996094 464.40625 397.613281 464.855469 395.238281 C 466.246094 387.566406 467.601562 379.898438 469.214844 372.269531 C 468.855469 372.496094 468.496094 372.941406 467.957031 373.792969 C 465.617188 377.515625 462.378906 380.523438 459.507812 383.84375 C 455.054688 388.867188 451.371094 394.5625 448.628906 400.664062 C 444.71875 409.414062 442.382812 419.417969 435.457031 426.011719 C 436.578125 426.414062 437.746094 426.863281 438.917969 427.269531 C 436.578125 431.398438 436.847656 436.867188 439.636719 440.679688 C 440.714844 447.1875 442.105469 453.691406 443.726562 460.109375 C 443.859375 460.601562 443.996094 461.097656 444.398438 461.453125 C 445.03125 461.945312 445.929688 461.8125 446.691406 461.992188 C 447.902344 462.308594 448.628906 463.519531 449.207031 464.597656 C 450.378906 466.703125 451.546875 468.769531 452.667969 470.878906 C 453.792969 472.898438 456.175781 475.226562 458.015625 473.792969 C 457.386719 475.945312 459.230469 478.054688 461.207031 479.132812 C 463.140625 480.253906 465.433594 480.929688 466.828125 482.679688 C 467.1875 483.128906 467.5 483.664062 467.769531 484.203125 C 467.816406 483.753906 467.859375 483.351562 467.859375 482.902344 C 467.996094 480.390625 467.679688 477.921875 467.679688 475.410156 C 467.632812 470.523438 468.800781 465.675781 470.195312 460.917969 C 470.644531 459.394531 471.140625 457.871094 471.632812 456.34375 C 472.847656 456.929688 474.0625 457.464844 475.277344 458.003906 C 471.148438 450.375 467.863281 442.300781 465.484375 433.953125 Z M 465.484375 433.953125 " fill-opacity="1" fill-rule="nonzero"/></g><path fill="#e2a4a1" d="M 371.175781 321.433594 C 368.570312 321.195312 366.289062 323.085938 363.773438 323.808594 C 361.917969 324.335938 359.882812 324.242188 358.152344 325.089844 C 356.285156 326 355.566406 327.734375 355.335938 329.71875 C 355.257812 330.355469 355.285156 331.0625 355.699219 331.554688 C 356.230469 332.1875 357.191406 332.230469 358.003906 332.078125 C 358.820312 331.925781 359.640625 331.636719 360.453125 331.78125 C 361.320312 331.941406 362.019531 332.582031 362.652344 333.199219 C 363.644531 334.15625 364.660156 335.152344 365.949219 335.640625 C 367.242188 336.128906 368.886719 335.96875 369.738281 334.886719 C 370.140625 334.367188 370.320312 333.707031 370.46875 333.074219 C 370.90625 331.175781 370.714844 328.355469 372.410156 327.027344 C 373.5 326.171875 375.679688 326.015625 375.53125 324.1875 C 375.386719 322.414062 372.605469 321.5625 371.175781 321.433594 Z M 371.175781 321.433594 " fill-opacity="1" fill-rule="nonzero"/><path fill="#86776f" d="M 346.835938 319.046875 C 345.542969 319.472656 344.449219 320.378906 343.488281 321.316406 C 343.042969 321.757812 340.242188 324.59375 341.046875 325.152344 C 341.289062 325.320312 341.628906 325.175781 341.914062 325.253906 C 342.003906 325.273438 342.082031 325.316406 342.160156 325.363281 C 342.859375 325.761719 343.265625 326.398438 343.847656 326.917969 C 344.460938 327.457031 345.199219 327.863281 345.996094 328.0625 C 348.023438 328.570312 350.269531 327.667969 351.410156 325.925781 C 353.4375 322.832031 350.746094 317.765625 346.835938 319.046875 Z M 346.835938 319.046875 " fill-opacity="1" fill-rule="nonzero"/><path fill="#86776f" d="M 380.667969 309.945312 C 380.242188 309.742188 379.617188 309.675781 379.328125 309.609375 C 378.480469 309.414062 377.625 309.285156 376.757812 309.226562 C 375.523438 309.140625 374.207031 309.148438 373.019531 309.527344 C 371.191406 310.109375 370.007812 311.660156 370.207031 313.601562 C 370.371094 315.28125 371.386719 316.953125 372.960938 317.660156 C 374.816406 318.492188 377.136719 318.015625 378.5625 316.574219 C 379.144531 315.980469 379.605469 315.21875 379.746094 314.394531 C 379.902344 313.488281 380.265625 312.59375 380.542969 311.714844 C 380.59375 311.5625 380.636719 311.414062 380.722656 311.277344 C 380.859375 311.039062 381.09375 310.835938 381.128906 310.5625 C 381.160156 310.273438 380.960938 310.082031 380.667969 309.945312 Z M 380.667969 309.945312 " fill-opacity="1" fill-rule="nonzero"/><path fill="#fff9f5" d="M 450.808594 246.101562 C 446.089844 244.246094 440.984375 243.023438 435.910156 242.765625 C 434.042969 242.671875 425.25 242.011719 424.777344 243.835938 C 424.628906 244.417969 425.097656 244.980469 425.585938 245.335938 C 427.605469 246.808594 430.316406 246.851562 432.648438 247.769531 C 434.707031 248.582031 436.472656 250.117188 437.566406 252.039062 C 437.898438 252.625 438.214844 253.289062 438.828125 253.570312 C 439.183594 253.734375 439.589844 253.738281 439.980469 253.6875 C 442.453125 253.375 444.300781 251.019531 446.777344 250.714844 C 448.058594 250.554688 449.34375 250.96875 450.636719 250.9375 C 451.929688 250.90625 453.398438 250.160156 453.488281 248.871094 C 453.574219 247.5 452.089844 246.605469 450.808594 246.101562 Z M 450.808594 246.101562 " fill-opacity="1" fill-rule="nonzero"/><path fill="#fff9f5" d="M 263.203125 292.605469 C 261.839844 292.710938 260.125 294.777344 259.089844 295.535156 C 257.394531 296.78125 255.628906 297.921875 253.800781 298.953125 C 250.074219 301.0625 246.09375 302.722656 241.96875 303.878906 C 240.996094 304.15625 239.96875 304.425781 239.226562 305.105469 C 238.480469 305.789062 238.144531 307.042969 238.792969 307.816406 C 239.445312 308.601562 240.648438 308.511719 241.660156 308.410156 C 245.761719 308.015625 249.953125 308.601562 253.785156 310.113281 C 258.660156 312.035156 261.417969 308.128906 263.835938 304.164062 C 265.058594 302.152344 267.992188 292.230469 263.203125 292.605469 Z M 263.203125 292.605469 " fill-opacity="1" fill-rule="nonzero"/><path fill="#f4f2f2" d="M 316.347656 276.523438 C 316.78125 277.75 317.703125 278.730469 318.433594 279.804688 C 319.875 281.929688 320.609375 284.515625 320.492188 287.074219 C 320.460938 287.820312 320.386719 288.660156 320.886719 289.210938 C 321.355469 289.730469 322.140625 289.78125 322.753906 290.121094 C 324.601562 291.140625 324.1875 294.121094 325.757812 295.53125 C 326.429688 296.136719 327.359375 296.351562 328.160156 296.773438 C 329.007812 297.226562 329.699219 297.917969 330.375 298.59375 C 331.71875 299.933594 338.609375 308.464844 338.546875 302.414062 C 338.496094 297.832031 334.027344 293.386719 332.941406 289.0625 C 332.074219 287.210938 331.195312 285.347656 330.039062 283.65625 C 328.851562 281.921875 327.371094 280.363281 326.503906 278.449219 C 325.648438 276.558594 325.457031 274.445312 324.976562 272.425781 C 324.730469 271.382812 324.390625 270.332031 323.699219 269.511719 C 323.199219 268.914062 322.539062 268.46875 322.011719 267.898438 C 320.816406 266.601562 320.410156 264.792969 319.839844 263.121094 C 318.902344 260.375 317.292969 257.707031 314.75 256.296875 C 314.441406 256.128906 314.078125 255.976562 313.746094 256.085938 C 313.199219 256.273438 313.113281 257.007812 313.191406 257.578125 C 313.679688 261.246094 316.726562 264.273438 316.890625 267.972656 C 317.023438 270.859375 315.371094 273.808594 316.347656 276.523438 Z M 316.347656 276.523438 " fill-opacity="1" fill-rule="nonzero"/><path fill="#f4f2f2" d="M 368.933594 262.832031 C 368.335938 261.195312 367.117188 259.824219 366.640625 258.148438 C 366.167969 256.492188 366.476562 254.730469 366.351562 253.011719 C 366.101562 249.601562 364.15625 246.578125 362.277344 243.722656 C 358.851562 248.570312 359.859375 255.136719 361.019531 260.953125 C 361.804688 264.910156 362.59375 268.867188 363.382812 272.824219 C 364.441406 278.167969 365.503906 283.511719 366.566406 288.855469 C 366.832031 290.183594 366.996094 293.960938 368.597656 294.492188 C 370.441406 295.109375 371.140625 292.570312 371.257812 291.199219 C 371.625 287.082031 370.398438 282.8125 371.609375 278.855469 C 371.910156 277.878906 372.351562 276.925781 372.40625 275.90625 C 372.519531 273.683594 370.792969 271.824219 370.085938 269.71875 C 369.339844 267.503906 369.730469 265.027344 368.933594 262.832031 Z M 368.933594 262.832031 " fill-opacity="1" fill-rule="nonzero"/><path fill="#f4f2f2" d="M 336.015625 257.253906 C 336.601562 259.433594 337.503906 261.34375 338.554688 263.339844 C 339.144531 264.472656 341.199219 270.878906 342.480469 267.792969 C 343.113281 266.269531 343.746094 264.738281 344.378906 263.214844 C 344.8125 262.179688 345.246094 261.113281 345.332031 259.992188 C 345.410156 258.964844 345.183594 257.929688 344.796875 256.976562 C 343.695312 254.285156 341.355469 252.207031 340.4375 249.453125 C 339.890625 247.8125 339.886719 246.046875 339.515625 244.359375 C 339.144531 242.671875 338.25 240.925781 336.632812 240.296875 C 336.183594 240.121094 335.683594 240.042969 335.285156 239.765625 C 333.894531 238.816406 334.628906 236.535156 333.746094 235.101562 C 333.457031 234.632812 332.890625 234.261719 332.375 234.449219 C 332.023438 234.578125 331.804688 234.925781 331.65625 235.265625 C 331 236.785156 331.234375 238.519531 331.527344 240.144531 C 332.578125 245.960938 334.488281 251.554688 336.015625 257.253906 Z M 336.015625 257.253906 " fill-opacity="1" fill-rule="nonzero"/><path fill="#f4f2f2" d="M 312.464844 331.234375 C 310.371094 333.40625 308.632812 336.027344 306.011719 337.53125 C 304.488281 338.398438 302.757812 338.839844 301.144531 339.542969 C 297.628906 341.082031 294.820312 343.828125 291.757812 346.136719 C 288.964844 348.246094 285.910156 350.007812 282.683594 351.375 C 275.949219 354.234375 268.085938 355.640625 263.332031 361.199219 C 262.765625 361.859375 262.359375 363.070312 263.152344 363.429688 C 263.398438 363.542969 263.683594 363.515625 263.949219 363.464844 C 266.609375 362.992188 268.722656 361.046875 271.097656 359.765625 C 275.320312 357.488281 280.40625 357.292969 284.707031 355.175781 C 288.960938 353.082031 292.242188 349.210938 296.726562 347.679688 C 298.054688 347.226562 299.476562 346.984375 300.691406 346.273438 C 302.65625 345.121094 303.753906 342.960938 305.265625 341.257812 C 305.917969 340.523438 306.707031 339.835938 307.671875 339.648438 C 308.367188 339.511719 309.085938 339.640625 309.785156 339.527344 C 310.707031 339.378906 311.503906 338.828125 312.261719 338.289062 C 316.332031 335.421875 320.394531 332.554688 324.460938 329.691406 C 325.609375 328.878906 326.855469 327.929688 327.117188 326.550781 C 328.28125 320.460938 313.96875 329.671875 312.464844 331.234375 Z M 312.464844 331.234375 " fill-opacity="1" fill-rule="nonzero"/><path fill="#f4f2f2" d="M 441.5 296.765625 C 438.007812 297.59375 434.238281 299.265625 431.03125 297.65625 C 430.273438 297.273438 429.597656 296.722656 428.796875 296.421875 C 427.042969 295.773438 425.109375 296.476562 423.328125 297.054688 C 420.703125 297.90625 417.992188 298.492188 415.25 298.800781 C 413.648438 298.980469 412.023438 299.066406 410.429688 298.847656 C 408.90625 298.636719 407.433594 298.152344 405.921875 297.847656 C 401.265625 296.914062 394.578125 297.292969 390.363281 299.675781 C 389.472656 300.179688 386.90625 301.871094 387.304688 303.21875 C 387.773438 304.785156 391.796875 304.265625 393.058594 304.332031 C 397.785156 304.582031 402.546875 304.832031 407.234375 304.195312 C 410.671875 303.722656 414.058594 302.78125 417.527344 302.734375 C 422.511719 302.660156 427.464844 304.445312 432.410156 303.785156 C 434.523438 303.5 436.550781 302.777344 438.613281 302.238281 C 443.261719 301.007812 448.148438 300.683594 452.914062 301.285156 C 454.863281 301.527344 456.808594 301.921875 458.765625 301.820312 C 460.726562 301.714844 462.757812 301.027344 463.972656 299.488281 C 456.664062 297.257812 448.933594 295.003906 441.5 296.765625 Z M 441.5 296.765625 " fill-opacity="1" fill-rule="nonzero"/><path fill="#f4f2f2" d="M 407.039062 317.214844 C 399.679688 317.597656 392.367188 318.625 385.183594 320.277344 C 383.996094 320.554688 384.496094 322.375 385.691406 322.101562 C 392.710938 320.480469 399.84375 319.480469 407.039062 319.105469 C 408.25 319.042969 408.257812 317.152344 407.039062 317.214844 Z M 407.039062 317.214844 " fill-opacity="1" fill-rule="nonzero"/><path fill="#f4f2f2" d="M 404.550781 327.539062 C 398.753906 325.757812 392.828125 324.445312 386.824219 323.601562 C 385.632812 323.4375 385.117188 325.257812 386.316406 325.425781 C 392.324219 326.269531 398.246094 327.582031 404.046875 329.359375 C 405.21875 329.71875 405.714844 327.894531 404.550781 327.539062 Z M 404.550781 327.539062 " fill-opacity="1" fill-rule="nonzero"/><path fill="#f4f2f2" d="M 347.59375 336.527344 C 348.683594 335.972656 347.722656 334.339844 346.636719 334.890625 C 338.035156 339.265625 331.347656 346.878906 328.035156 355.917969 C 327.617188 357.0625 329.445312 357.558594 329.863281 356.421875 C 333.007812 347.839844 339.445312 340.671875 347.59375 336.527344 Z M 347.59375 336.527344 " fill-opacity="1" fill-rule="nonzero"/><path fill="#f4f2f2" d="M 347.605469 339.707031 C 342.730469 344.683594 339.40625 351.0625 338.167969 357.917969 C 337.949219 359.109375 339.777344 359.621094 339.992188 358.421875 C 341.175781 351.875 344.28125 345.808594 348.945312 341.046875 C 349.800781 340.175781 348.460938 338.835938 347.605469 339.707031 Z M 347.605469 339.707031 " fill-opacity="1" fill-rule="nonzero"/><g fill="#bbb3b0" fill-opacity="1"><g transform="translate(343.563588, 610.60799)"><g><path d="M 13.925781 -28.398438 C 5.871094 -28.398438 -0.820312 -21.980469 -0.820312 -13.652344 C -0.820312 -5.460938 5.871094 1.367188 13.925781 1.367188 C 22.253906 1.367188 29.082031 -5.460938 29.082031 -13.652344 C 29.082031 -21.980469 22.253906 -28.398438 13.925781 -28.398438 Z M 13.925781 -28.398438 "/></g></g></g><g fill="#86776f" fill-opacity="1"><g transform="translate(337.529636, 604.573982)"><g><path d="M 13.925781 -28.398438 C 5.871094 -28.398438 -0.820312 -21.980469 -0.820312 -13.652344 C -0.820312 -5.460938 5.871094 1.367188 13.925781 1.367188 C 22.253906 1.367188 29.082031 -5.460938 29.082031 -13.652344 C 29.082031 -21.980469 22.253906 -28.398438 13.925781 -28.398438 Z M 13.925781 -28.398438 "/></g></g></g><g fill="#bbb3b0" fill-opacity="1"><g transform="translate(36.847179, 548.796074)"><g><path d="M 58.9375 0 L 128.058594 0 C 165.894531 0 184.8125 -29.105469 184.8125 -58.207031 C 184.8125 -87.3125 165.894531 -116.417969 128.058594 -116.417969 L 115.328125 -116.417969 L 116.054688 -200.457031 C 116.417969 -232.109375 90.222656 -258.300781 57.84375 -258.300781 C 25.832031 -258.300781 0 -232.109375 0 -200.457031 L 0 -58.9375 C 0 -25.464844 25.101562 0 58.9375 0 Z M 58.9375 0 "/></g></g></g><g fill="#86776f" fill-opacity="1"><g transform="translate(20.768743, 532.717627)"><g><path d="M 58.9375 0 L 128.058594 0 C 165.894531 0 184.8125 -29.105469 184.8125 -58.207031 C 184.8125 -87.3125 165.894531 -116.417969 128.058594 -116.417969 L 115.328125 -116.417969 L 116.054688 -200.457031 C 116.417969 -232.109375 90.222656 -258.300781 57.84375 -258.300781 C 25.832031 -258.300781 0 -232.109375 0 -200.457031 L 0 -58.9375 C 0 -25.464844 25.101562 0 58.9375 0 Z M 58.9375 0 "/></g></g></g><g fill="#bbb3b0" fill-opacity="1"><g transform="translate(509.889122, 548.796074)"><g><path d="M 128.789062 -258.300781 C 57.84375 -258.300781 0 -201.546875 0 -129.515625 C 0 -60.753906 57.117188 0 126.96875 0 L 179.71875 0 C 213.554688 0 241.203125 -28.742188 241.203125 -61.484375 C 241.203125 -95.679688 213.554688 -124.785156 179.71875 -124.785156 C 161.53125 -124.785156 147.339844 -116.417969 136.425781 -116.417969 C 128.789062 -116.417969 122.238281 -122.238281 122.238281 -129.515625 C 122.238281 -137.15625 128.789062 -143.703125 136.425781 -143.703125 C 147.339844 -143.703125 161.53125 -135.335938 179.71875 -135.335938 C 213.554688 -135.335938 241.203125 -162.621094 241.203125 -196.820312 C 241.203125 -229.5625 213.554688 -258.300781 179.71875 -258.300781 Z M 128.789062 -258.300781 "/></g></g></g><g fill="#86776f" fill-opacity="1"><g transform="translate(493.810707, 532.717627)"><g><path d="M 128.789062 -258.300781 C 57.84375 -258.300781 0 -201.546875 0 -129.515625 C 0 -60.753906 57.117188 0 126.96875 0 L 179.71875 0 C 213.554688 0 241.203125 -28.742188 241.203125 -61.484375 C 241.203125 -95.679688 213.554688 -124.785156 179.71875 -124.785156 C 161.53125 -124.785156 147.339844 -116.417969 136.425781 -116.417969 C 128.789062 -116.417969 122.238281 -122.238281 122.238281 -129.515625 C 122.238281 -137.15625 128.789062 -143.703125 136.425781 -143.703125 C 147.339844 -143.703125 161.53125 -135.335938 179.71875 -135.335938 C 213.554688 -135.335938 241.203125 -162.621094 241.203125 -196.820312 C 241.203125 -229.5625 213.554688 -258.300781 179.71875 -258.300781 Z M 128.789062 -258.300781 "/></g></g></g><g fill="#bbb3b0" fill-opacity="1"><g transform="translate(264.624775, 354.033667)"><g><path d="M 120.054688 -247.023438 C 107.324219 -259.757812 85.128906 -259.757812 71.667969 -247.023438 L 21.101562 -196.453125 C 7.277344 -183.359375 7.277344 -161.894531 21.101562 -147.703125 C 34.199219 -134.972656 55.296875 -134.972656 69.121094 -147.703125 C 81.492188 -160.074219 95.316406 -174.261719 108.050781 -186.632812 C 108.777344 -187.359375 110.234375 -186.632812 109.503906 -184.8125 L 100.410156 -169.898438 L 122.601562 -147.703125 C 135.699219 -134.972656 157.527344 -134.972656 170.625 -147.703125 C 183.722656 -161.894531 183.722656 -183.359375 170.625 -196.453125 Z M 120.054688 -247.023438 "/></g></g></g><g fill="#86776f" fill-opacity="1"><g transform="translate(248.546328, 337.955235)"><g><path d="M 120.054688 -247.023438 C 107.324219 -259.757812 85.128906 -259.757812 71.667969 -247.023438 L 21.101562 -196.453125 C 7.277344 -183.359375 7.277344 -161.894531 21.101562 -147.703125 C 34.199219 -134.972656 55.296875 -134.972656 69.121094 -147.703125 C 81.492188 -160.074219 95.316406 -174.261719 108.050781 -186.632812 C 108.777344 -187.359375 110.234375 -186.632812 109.503906 -184.8125 L 100.410156 -169.898438 L 122.601562 -147.703125 C 135.699219 -134.972656 157.527344 -134.972656 170.625 -147.703125 C 183.722656 -161.894531 183.722656 -183.359375 170.625 -196.453125 Z M 120.054688 -247.023438 "/></g></g></g></svg>